<?xml version="1.0" encoding="UTF-8" standalone="no"?>
<!-- Created with Inkscape (http://www.inkscape.org/) -->

<svg
   width="26.769789mm"
   height="26.769781mm"
   viewBox="0 0 26.769789 26.769781"
   version="1.1"
   id="svg1"
   xml:space="preserve"
   xmlns="http://www.w3.org/2000/svg"
   xmlns:svg="http://www.w3.org/2000/svg"><defs
     id="defs1" /><g
     id="layer1"
     transform="translate(-53.583471,-144.02987)"><g
       id="g22"
       transform="translate(-13.301531,-37.858204)"><circle
         style="fill:#0b092f;fill-opacity:1;stroke-width:1.802;stroke-linecap:round;stroke-linejoin:round;paint-order:markers stroke fill"
         id="circle21"
         cx="80.269897"
         cy="195.27296"
         r="13.384896" /><g
         id="g21"
         transform="matrix(1.2090401,0,0,1.2090401,-43.758479,-17.259479)"><path
           style="fill:#6d6d82;fill-opacity:1;stroke:none;stroke-width:0.824;stroke-linecap:round;stroke-linejoin:round;stroke-dasharray:none;stroke-opacity:1;paint-order:markers stroke fill"
           d="m 99.74752,162.18159 1.91147,-0.86471 a 2.2890469,2.2890469 179.99997 0 1 1.88694,0 l 1.91148,0.86471 a 1.6049998,1.6049998 57.170527 0 1 0.94347,1.46233 v 3.31005 a 1.9667575,1.9667575 117.76733 0 1 -0.85375,1.62153 l -2.11353,1.4507 a 1.5086441,1.5086441 3.1482928e-5 0 1 -1.7075,0 l -2.113517,-1.4507 a 1.9468727,1.9468727 62.473442 0 1 -0.845052,-1.62149 l 0.02782,-3.31013 a 1.6199017,1.6199017 123.07018 0 1 0.952173,-1.46229 z"
           id="path18"
           transform="translate(0,10.083892)" /><g
           id="g20"
           transform="matrix(0.76260117,0,0,0.76260117,24.355764,49.100892)"><circle
             style="fill:#fefefe;fill-opacity:1;stroke:none;stroke-width:0.660458;stroke-linecap:round;stroke-linejoin:round;stroke-dasharray:none;stroke-opacity:1;paint-order:markers stroke fill"
             id="path19"
             cx="102.68161"
             cy="164.58673"
             r="1.1870052" /><path
             style="fill:#fefefe;fill-opacity:1;stroke:none;stroke-width:0.824;stroke-linecap:round;stroke-linejoin:round;stroke-dasharray:none;stroke-opacity:1;paint-order:markers stroke fill"
             d="m 101.35668,166.56849 0.31617,-0.22759 a 1.5905502,1.5905502 179.77105 0 1 1.84813,-0.007 l 0.30661,0.21701 a 0.68081609,0.68081609 88.915514 0 1 0.0207,1.09613 l -0.65243,0.49989 a 0.99706689,0.99706689 179.78096 0 1 -1.20676,0.005 L 101.3445,167.665 a 0.6810628,0.6810628 90.6365 0 1 0.0122,-1.09651 z"
             id="path20"
             transform="matrix(1.2721093,0,0,1.2721093,-27.916859,-44.678268)" /></g></g></g></g></svg>
