<?xml version="1.0" encoding="UTF-8" standalone="no"?>
<!-- Created with Inkscape (http://www.inkscape.org/) -->

<svg
   width="26.769796mm"
   height="26.769793mm"
   viewBox="0 0 26.769796 26.769793"
   version="1.1"
   id="svg1"
   xml:space="preserve"
   xmlns="http://www.w3.org/2000/svg"
   xmlns:svg="http://www.w3.org/2000/svg"><defs
     id="defs1" /><g
     id="layer1"
     transform="translate(-52.816076,-25.503654)"><g
       id="g24"><circle
         style="fill:#0b092f;fill-opacity:1;stroke-width:1.802;stroke-linecap:round;stroke-linejoin:round;paint-order:markers stroke fill"
         id="path1"
         cx="66.200974"
         cy="38.88855"
         r="13.384896" /><rect
         style="fill:#9c9cab;fill-opacity:1;stroke-width:1.802;stroke-linecap:round;stroke-linejoin:round;paint-order:markers stroke fill"
         id="rect3"
         width="4.5084519"
         height="4.9880743"
         x="61.487606"
         y="34.532822"
         rx="0.93482935"
         ry="0.93482935" /><path
         style="fill:#fefefe;fill-opacity:1;stroke-width:1.802;stroke-linecap:round;stroke-linejoin:round;paint-order:markers stroke fill"
         id="rect2"
         width="3.6451266"
         height="4.3965397"
         x="89.273743"
         y="67.930534"
         ry="0.93482935"
         rx="0.93482935"
         d="m 91.143401,67.930534 c 0.46428,0 1.360033,0.01236 1.627621,0.428743 0.157427,0.244971 0.147847,0.924624 0.147847,1.440916 v 0.657222 c 0,0.516292 -0.01236,1.454224 -0.428743,1.721812 -0.24497,0.157427 -0.924623,0.147847 -1.440915,0.147847 -0.46428,0 -1.360033,-0.01236 -1.627622,-0.428743 -0.157426,-0.24497 -0.147846,-0.924624 -0.147846,-1.440916 v -0.657222 c 0,-0.516292 0.01236,-1.454224 0.428742,-1.721812 0.244971,-0.157427 0.924624,-0.147847 1.440916,-0.147847 z"
         transform="matrix(1.8744892,0,0,1.8744892,-107.28481,-89.932527)" /><rect
         style="fill:#6a6a80;fill-opacity:1;stroke-width:3.37783;stroke-linecap:round;stroke-linejoin:round;paint-order:markers stroke fill"
         id="rect1"
         width="6.5930128"
         height="12.346914"
         x="64.13353"
         y="33.236935"
         ry="1.7523276" /><rect
         style="fill:#ffffff;fill-opacity:1;stroke-width:1.802;stroke-linecap:round;stroke-linejoin:round;paint-order:markers stroke fill"
         id="rect4"
         width="1.7905908"
         height="2.5899618"
         x="66.475685"
         y="42.974178"
         rx="0"
         ry="0.51159734" /><rect
         style="fill:#ffffff;fill-opacity:1;stroke-width:1.802;stroke-linecap:round;stroke-linejoin:round;paint-order:markers stroke fill"
         id="rect5"
         width="0.74611753"
         height="4.0471225"
         x="66.178368"
         y="35.632763"
         ry="0.37305877" /><rect
         style="fill:#ffffff;fill-opacity:1;stroke-width:1.802;stroke-linecap:round;stroke-linejoin:round;paint-order:markers stroke fill"
         id="rect6"
         width="0.74611753"
         height="4.0471225"
         x="68.032356"
         y="35.632763"
         ry="0.37305877" /><rect
         style="fill:#0b092f;fill-opacity:1;stroke-width:1.54108;stroke-linecap:round;stroke-linejoin:round;paint-order:markers stroke fill"
         id="rect7"
         width="0.74611753"
         height="2.9599781"
         x="61.51757"
         y="39.6427"
         ry="0.37305877" /></g></g></svg>
